# xmcd
#
# Track frame offsets:
#	150
#	13700
#	36055
#	54725
#	79225
#	100265
#	110635
#	131310
#	145512
#	166040
#	176507
#	186727
#	226565
#
# Disc length: 3203 seconds
#
# Revision: 1
# Processed by: cddbd v1.5.2PL0 Copyright (c) Steve Scherf et al.
# Submitted via: audiograbber 1.83.01
#
DISCID=a10c810d
DTITLE=Ella Fitzgerald - Any Old Blues
DYEAR=1900
DGENRE=Jazz
TTITLE0=I´ve Gotta Me
TTITLE1=Good Morning Heartache
TTITLE2=Miss Otis Regrets
TTITLE3=Medley: Don´t Worry/these Foolish Things
TTITLE4=Any Old Blues
TTITLE5=A-Tisket A-Tasket
TTITLE6=Indian Summer
TTITLE7=Smoth Sailing
TTITLE8=You Turned The Tables On Me
TTITLE9=Nice Work If You Can Get It
TTITLE10=I´ve Got A Crush On You
TTITLE11=Medley: I Can´t Get Started
TTITLE12=Medley: Taking A Chance In Love
EXTD=
EXTT0=
EXTT1=
EXTT2=
EXTT3=
EXTT4=
EXTT5=
EXTT6=
EXTT7=
EXTT8=
EXTT9=
EXTT10=
EXTT11=
EXTT12=
PLAYORDER=
